# xmcd CD database file
#
# Track frame offsets:
#	150
#	24047
#	44630
#	63105
#	87667
#	109680
#	125662
#	148000
#	164672
#	177005
#
# Disc length: 2521 seconds
#
# Revision: 0
# Processed by: cddbd v1.5.1PL0 Copyright (c) Steve Scherf et al.
# Submitted via: CDex 1.51
#
DISCID=8709d70a
DTITLE=布施明 - ふたたび愛の唄を
DYEAR=1900
DGENRE=Vocal
TTITLE0=五番街のマリへ
TTITLE1=別涙
TTITLE2=見上げてごらん夜の星を
TTITLE3=悲しい色やね
TTITLE4=五月のバラ
TTITLE5=好きにならずにはいられない
TTITLE6=青い影
TTITLE7=ボーイ・ハント
TTITLE8=アイム・ソーリー
TTITLE9=この世の果てまで
EXTD=
EXTT0=
EXTT1=
EXTT2=
EXTT3=
EXTT4=
EXTT5=
EXTT6=
EXTT7=
EXTT8=
EXTT9=
PLAYORDER=
